<svg width="512" height="512" viewBox="0 0 512 512" fill="none" xmlns="http://www.w3.org/2000/svg">
  <rect width="512" height="512" rx="120" fill="#F5F7F6"/>
  <rect x="64" y="64" width="384" height="384" rx="104" fill="url(#paint0_linear)"/>
  <rect x="124" y="110" width="264" height="292" rx="62" fill="#FCFEFD" stroke="#DDE8E1" stroke-width="10"/>
  <path d="M124 210H388" stroke="#DDE8E1" stroke-width="10"/>
  <circle cx="182" cy="160" r="14" fill="#7EB9A5"/>
  <circle cx="330" cy="160" r="14" fill="#D7E7DF"/>
  <path d="M182 284C182 242.026 216.026 208 258 208C299.974 208 334 242.026 334 284V312H182V284Z" fill="#EAF4EF"/>
  <path d="M256 194C281.405 194 302 173.405 302 148C302 122.595 281.405 102 256 102C230.595 102 210 122.595 210 148C210 173.405 230.595 194 256 194Z" fill="#7EB9A5"/>
  <path d="M196 342H316" stroke="#C9DDD4" stroke-width="12" stroke-linecap="round"/>
  <path d="M216 374H296" stroke="#D7E7DF" stroke-width="12" stroke-linecap="round"/>
  <defs>
    <linearGradient id="paint0_linear" x1="92" y1="82" x2="418" y2="438" gradientUnits="userSpaceOnUse">
      <stop stop-color="#ECF3EF"/>
      <stop offset="1" stop-color="#E1EEE7"/>
    </linearGradient>
  </defs>
</svg>
